Coordinates
version=1
nRows=38
nColumns=34
inDegrees=no

Units are S.I. units (second, meters, Newtons, ...)
If the header above contains a line with 'inDegrees', this indicates whether rotational values are in degrees (yes) or radians (no).

endheader
time	pelvis_tilt	pelvis_list	pelvis_rotation	pelvis_tx	pelvis_ty	pelvis_tz	hip_flexion_r	hip_adduction_r	hip_rotation_r	knee_angle_r	ankle_angle_r	subtalar_angle_r	mtp_angle_r	hip_flexion_l	hip_adduction_l	hip_rotation_l	knee_angle_l	ankle_angle_l	subtalar_angle_l	mtp_angle_l	lumbar_extension	lumbar_bending	lumbar_rotation	arm_flex_r	arm_add_r	arm_rot_r	elbow_flex_r	pro_sup_r	arm_flex_l	arm_add_l	arm_rot_l	elbow_flex_l	pro_sup_l
1.55	-0.469554	-0.0101963	0.0136051	-0.294773	0.626321	-0.635272	1.65096	-0.319258	0.087253	1.72832	0.560964	-0.0719515	-0.0983537	1.67108	-0.173422	0.126943	1.73985	0.535435	-0.0942896	-0.0963717	-0.456155	-0.0487196	0.0363732	1.82019	-0.570988	0.472889	1.90063	1.16733	1.59784	-0.606914	0.521183	1.93907	1.84112
1.56	-0.468472	-0.0111484	0.0129564	-0.291115	0.635754	-0.635325	1.62305	-0.319	0.0767153	1.70123	0.557436	-0.0738786	-0.0983651	1.64592	-0.177887	0.120704	1.71491	0.531898	-0.0921836	-0.0964001	-0.444229	-0.04875	0.0342258	1.84693	-0.579211	0.488373	1.90977	1.16441	1.63401	-0.616002	0.538893	1.9493	1.84341
1.57	-0.468068	-0.0129957	0.0128507	-0.287243	0.645654	-0.635383	1.59425	-0.319461	0.0641941	1.6722	0.553266	-0.0752855	-0.0983766	1.62086	-0.182814	0.114284	1.68809	0.52752	-0.0882586	-0.0964286	-0.429576	-0.0478223	0.0322708	1.87206	-0.590554	0.506188	1.9211	1.1646	1.66838	-0.626183	0.557785	1.96114	1.84646
1.58	-0.468136	-0.0157984	0.0134766	-0.283148	0.656025	-0.635463	1.5643	-0.320601	0.0496576	1.64123	0.548388	-0.076396	-0.0983881	1.59565	-0.187768	0.107811	1.65936	0.522207	-0.0829293	-0.0964571	-0.412425	-0.0458273	0.0303276	1.8955	-0.604998	0.526582	1.93424	1.16647	1.7013	-0.637151	0.577965	1.97417	1.8496
1.59	-0.468312	-0.0195364	0.0149258	-0.278807	0.666904	-0.635575	1.53276	-0.322264	0.0331537	1.60828	0.542747	-0.0774724	-0.0983996	1.56982	-0.192469	0.101358	1.62868	0.515903	-0.0766629	-0.0964855	-0.393229	-0.0427857	0.0282454	1.91709	-0.622455	0.549685	1.94889	1.16848	1.733	-0.648713	0.599548	1.98817	1.85194
1.6	-0.468163	-0.0241367	0.0171757	-0.274194	0.678346	-0.635719	1.49913	-0.324172	0.0148113	1.5733	0.536262	-0.0788137	-0.0984111	1.54279	-0.196814	0.0949848	1.59603	0.508562	-0.069964	-0.0965139	-0.372544	-0.0388186	0.0259557	1.93659	-0.642814	0.575536	1.96486	1.16927	1.76344	-0.660813	0.622601	2.00313	1.85246
1.61	-0.467276	-0.0295043	0.0201012	-0.269284	0.690412	-0.635892	1.46294	-0.325942	-0.00515959	1.53621	0.52878	-0.0807341	-0.0984227	1.51402	-0.200865	0.0887876	1.56143	0.500096	-0.0633723	-0.0965423	-0.350899	-0.0340936	0.0235063	1.95365	-0.665986	0.604105	1.98206	1.16784	1.79222	-0.673519	0.647045	2.01929	1.85007
1.62	-0.465322	-0.0355458	0.0235049	-0.264056	0.70316	-0.636081	1.42384	-0.327132	-0.0264689	1.49689	0.520032	-0.083524	-0.0984342	1.4831	-0.204797	0.082929	1.52494	0.490336	-0.057454	-0.0965707	-0.328695	-0.0287719	0.0210644	1.9678	-0.691913	0.635318	2.00048	1.16374	1.81843	-0.686982	0.67258	2.03698	1.84395
1.63	-0.462089	-0.0421729	0.0271539	-0.258489	0.716645	-0.636275	1.3816	-0.327282	-0.0487397	1.45509	0.509565	-0.0873931	-0.0984458	1.44972	-0.208834	0.0776281	1.48651	0.478988	-0.0527702	-0.096599	-0.306168	-0.0229802	0.0188808	1.97839	-0.720528	0.669036	2.02014	1.15706	1.84069	-0.701424	0.698693	2.05652	1.83377
1.64	-0.457476	-0.0492834	0.0308093	-0.252563	0.730924	-0.636466	1.33606	-0.325956	-0.0715037	1.41043	0.496681	-0.0924041	-0.0984574	1.41364	-0.213198	0.0731068	1.44601	0.465597	-0.0498139	-0.0966273	-0.283399	-0.0168206	0.0172262	1.98456	-0.751683	0.704975	2.04104	1.14843	1.85718	-0.717127	0.724726	2.07817	1.81993
1.65	-0.451462	-0.0567399	0.0342476	-0.246257	0.746061	-0.636652	1.28713	-0.32277	-0.0942217	1.36225	0.480375	-0.0983959	-0.098469	1.37459	-0.218054	0.0694991	1.40299	0.449503	-0.0489174	-0.0966556	-0.260362	-0.0104007	0.0163198	1.98511	-0.785053	0.742591	2.06308	1.13886	1.86584	-0.734399	0.74995	2.10191	1.80356
1.66	-0.44406	-0.0643551	0.0372871	-0.239554	0.762135	-0.636836	1.23467	-0.31743	-0.116356	1.30965	0.459295	-0.104906	-0.0984807	1.33217	-0.223467	0.0667383	1.3567	0.429786	-0.0501399	-0.0966839	-0.236984	-0.00385803	0.0162678	1.97847	-0.820058	0.780949	2.086	1.12951	1.86443	-0.753499	0.773584	2.12746	1.78635
1.67	-0.435287	-0.0718853	0.0398131	-0.232447	0.779232	-0.637031	1.17849	-0.309758	-0.137493	1.25136	0.431746	-0.11112	-0.0984924	1.28579	-0.229378	0.0644349	1.30591	0.405229	-0.0531559	-0.0967121	-0.213221	0.002635	0.0170287	1.96268	-0.855817	0.818647	2.1094	1.12134	1.85067	-0.774532	0.794764	2.15419	1.76997
1.68	-0.425162	-0.0790563	0.0417802	-0.224934	0.797461	-0.637265	1.11823	-0.299702	-0.157489	1.1859	0.395753	-0.115862	-0.098504	1.23465	-0.235596	0.0617577	1.24905	0.374283	-0.0571648	-0.0967404	-0.189118	0.00886782	0.0184195	1.93547	-0.891158	0.853817	2.1327	1.11507	1.82237	-0.797337	0.812433	2.18115	1.75579
1.69	-0.413682	-0.0855774	0.0431983	-0.21706	0.816918	-0.637555	1.05351	-0.287329	-0.176617	1.11163	0.349219	-0.117659	-0.0985158	1.17786	-0.241822	0.0573403	1.18423	0.335098	-0.0608549	-0.0967686	-0.164846	0.0146064	0.0201622	1.89453	-0.924689	0.884255	2.15512	1.11128	1.7775	-0.821391	0.825226	2.20714	1.74487
1.7	-0.400831	-0.0911441	0.0441219	-0.208863	0.837634	-0.637918	0.983926	-0.272807	-0.19566	1.02708	0.290192	-0.11486	-0.0985275	1.11454	-0.247697	0.049245	1.10956	0.285645	-0.0624542	-0.0967969	-0.140741	0.019615	0.021956	1.83783	-0.954906	0.90768	2.1757	1.11054	1.71451	-0.845778	0.831433	2.23077	1.73795
1.71	-0.386564	-0.0954981	0.0446059	-0.20043	0.859633	-0.63837	0.909276	-0.256422	-0.215904	0.931296	0.217272	-0.105814	-0.0985393	1.04404	-0.252833	0.0350137	1.02346	0.223978	-0.059901	-0.0968251	-0.117327	0.0236481	0.0235335	1.76413	-0.980332	0.922066	2.19332	1.11353	1.63253	-0.869221	0.829113	2.25061	1.7356
1.72	-0.370773	-0.0984507	0.0447049	-0.191821	0.882882	-0.638915	0.829691	-0.238613	-0.239	0.824255	0.130103	-0.0891154	-0.0985511	0.966143	-0.256842	0.0118566	0.925213	0.148652	-0.0511419	-0.0968533	-0.0953369	0.0264529	0.0247078	1.67335	-0.999663	0.925978	2.20683	1.12098	1.53179	-0.890191	0.816388	2.26541	1.73833
1.73	-0.353321	-0.0998667	0.0444871	-0.183134	0.907258	-0.63954	0.745804	-0.219995	-0.266679	0.707323	0.0298942	-0.0639071	-0.0985629	0.881282	-0.25938	-0.0229751	0.815372	0.0592644	-0.0345346	-0.0968815	-0.0757076	0.0277979	0.0254025	1.56689	-1.01191	0.918827	2.21518	1.13357	1.41384	-0.907064	0.791828	2.2742	1.74666
1.74	-0.334071	-0.099675	0.0440375	-0.17452	0.932546	-0.640219	0.658877	-0.201351	-0.300323	0.583533	-0.0801911	-0.0302363	-0.0985748	0.790723	-0.260201	-0.0716272	0.696226	-0.0429812	-0.00930056	-0.0969097	-0.0595143	0.0275077	0.0256655	1.4476	-1.01654	0.900951	2.21757	1.15176	1.28174	-0.918307	0.754858	2.27655	1.76081
1.75	-0.312953	-0.0978909	0.0434564	-0.166188	0.958443	-0.640913	0.570838	-0.183577	-0.340443	0.457634	-0.194936	0.0106411	-0.0985868	0.696657	-0.259231	-0.134933	0.572003	-0.154849	0.0240661	-0.0969379	-0.0478498	0.0255049	0.025668	1.31959	-1.01349	0.87351	2.2136	1.17544	1.13992	-0.922652	0.706029	2.27265	1.78037
1.76	-0.289932	-0.0946799	0.0428357	-0.158399	0.984524	-0.641566	0.484212	-0.167595	-0.386161	0.335788	-0.30747	0.0561288	-0.0985987	0.602164	-0.256615	-0.211679	0.448735	-0.270985	0.0635404	-0.0969662	-0.0416441	0.0218269	0.0256776	1.18768	-1.00325	0.8382	2.20342	1.20373	0.99383	-0.919241	0.64708	2.26329	1.8041
1.77	-0.265256	-0.0902846	0.0422945	-0.151291	1.01029	-0.642109	0.401855	-0.154233	-0.434848	0.224898	-0.410271	0.102474	-0.0986107	0.510937	-0.252758	-0.298028	0.333727	-0.384399	0.105583	-0.0969944	-0.0416284	0.0166815	0.0260141	1.05686	-0.986688	0.796905	2.18764	1.235	0.849387	-0.907708	0.580791	2.24979	1.82978
1.78	-0.239367	-0.085044	0.0419817	-0.145035	1.03534	-0.642547	0.326601	-0.144129	-0.482166	0.131599	-0.496671	0.145349	-0.0986228	0.42686	-0.248299	-0.387404	0.234559	-0.48761	0.145557	-0.0970226	-0.0481755	0.0104174	0.0269815	0.931667	-0.964941	0.751401	2.16731	1.26708	0.7123	-0.888197	0.510624	2.23374	1.85465
1.79	-0.212845	-0.0793748	0.042074	-0.139853	1.05933	-0.642903	0.260832	-0.13765	-0.522676	0.0611134	-0.562389	0.180777	-0.0986348	0.353448	-0.244029	-0.471127	0.157822	-0.574277	0.178586	-0.0970509	-0.0612504	0.00350891	0.0287812	0.815787	-0.939158	0.703221	2.14363	1.29796	0.587401	-0.861325	0.440224	2.21667	1.87639
1.8	-0.186351	-0.0737454	0.0427615	-0.135892	1.08216	-0.643218	0.206125	-0.134819	-0.550991	0.0163416	-0.606384	0.206106	-0.098647	0.293327	-0.240792	-0.540001	0.107891	-0.640706	0.200726	-0.0970792	-0.0804177	-0.00346684	0.0314488	0.711894	-0.910316	0.653682	2.11773	1.32619	0.478084	-0.828107	0.372919	2.19982	1.8937
1.81	-0.160534	-0.0686273	0.0442081	-0.133336	1.10379	-0.643561	0.163103	-0.135273	-0.563072	-0.00249004	-0.630576	0.220662	-0.0986591	0.247882	-0.239371	-0.586502	0.086164	-0.6865	0.210029	-0.0971075	-0.10487	-0.00985263	0.0348548	0.621622	-0.87911	0.603999	2.09049	1.35104	0.386009	-0.789862	0.311354	2.18401	1.90631
1.82	-0.135986	-0.0644555	0.0465024	-0.132204	1.12414	-0.643957	0.131549	-0.138325	-0.5572	0.00245466	-0.638722	0.225778	-0.0986713	0.217191	-0.240379	-0.60669	0.090969	-0.714042	0.206997	-0.0971359	-0.13352	-0.0149474	0.0387785	0.545631	-0.845973	0.55535	2.06247	1.37243	0.311144	-0.748094	0.257355	2.16958	1.91465
1.83	-0.113242	-0.0616123	0.0496222	-0.132376	1.14317	-0.644424	0.110554	-0.143069	-0.534394	0.0270967	-0.635172	0.224254	-0.0986836	0.200167	-0.244163	-0.601079	0.118	-0.727256	0.194221	-0.0971643	-0.165046	-0.0181103	0.043014	0.483683	-0.81118	0.508847	2.03393	1.39057	0.252105	-0.704371	0.212016	2.15645	1.9195
1.84	-0.0927626	-0.0603993	0.0534302	-0.133614	1.16091	-0.644973	0.098661	-0.148488	-0.498207	0.0659292	-0.624033	0.219494	-0.0986958	0.194837	-0.250743	-0.574298	0.16101	-0.730384	0.17541	-0.0971929	-0.197915	-0.0188785	0.0474553	0.434724	-0.774974	0.465445	2.00491	1.40587	0.206632	-0.660217	0.175866	2.14418	1.92172
1.85	-0.0749818	-0.0609777	0.0577073	-0.135589	1.17737	-0.6456	0.0940448	-0.1536	-0.45387	0.112585	-0.608746	0.214497	-0.0987082	0.198636	-0.2598	-0.53376	0.212598	-0.727187	0.154145	-0.0972214	-0.230457	-0.0170307	0.0521255	0.397038	-0.737662	0.425858	1.97535	1.41915	0.172052	-0.617017	0.148982	2.13218	1.92215
1.86	-0.0603421	-0.0633509	0.0622001	-0.13797	1.19251	-0.646285	0.0947615	-0.15759	-0.407159	0.160565	-0.591918	0.211155	-0.0987205	0.208775	-0.270745	-0.488029	0.265113	-0.720465	0.133028	-0.0972501	-0.260955	-0.0125935	0.0571303	0.3685	-0.699659	0.390558	1.94509	1.43165	0.145613	-0.575945	0.131017	2.11985	1.92153
1.87	-0.0492862	-0.0673964	0.0666685	-0.140501	1.2063	-0.647004	0.0990014	-0.159897	-0.363338	0.203993	-0.575306	0.209994	-0.0987329	0.222634	-0.282858	-0.445325	0.311635	-0.711841	0.113381	-0.0972787	-0.287758	-0.00580477	0.0625688	0.346876	-0.661498	0.359849	1.91406	1.44472	0.124726	-0.537912	0.121185	2.10681	1.92044
1.88	-0.0422142	-0.0729128	0.0709304	-0.142995	1.2187	-0.647744	0.105277	-0.160249	-0.326457	0.238254	-0.559888	0.210373	-0.0987453	0.238097	-0.295436	-0.412392	0.346869	-0.70181	0.0953949	-0.0973073	-0.309472	0.0029452	0.0684575	0.330105	-0.623815	0.33393	1.88234	1.45932	0.107143	-0.503556	0.11827	2.09303	1.91929
1.89	-0.0394464	-0.079596	0.0748928	-0.145322	1.22974	-0.6485	0.112487	-0.158657	-0.299056	0.260456	-0.546016	0.210924	-0.0987577	0.253721	-0.307896	-0.393778	0.367756	-0.690092	0.0784868	-0.0973359	-0.325206	0.0131909	0.0746994	0.316501	-0.587329	0.312944	1.85028	1.47568	0.0911172	-0.47325	0.120715	2.07886	1.91833
1.9	-0.0409007	-0.0870937	0.0785564	-0.147417	1.23944	-0.649271	0.119921	-0.155412	-0.282202	0.269609	-0.533648	0.210081	-0.0987701	0.26876	-0.319775	-0.391494	0.373674	-0.676178	0.0617391	-0.0973644	-0.334707	0.0243953	0.0811013	0.304877	-0.552805	0.296973	1.81851	1.49323	0.0755076	-0.447145	0.126789	2.06503	1.91766
1.91	-0.0460841	-0.0949924	0.0820026	-0.149276	1.24782	-0.65005	0.127133	-0.15105	-0.275688	0.266545	-0.522605	0.206549	-0.0987825	0.282958	-0.330705	-0.404995	0.366204	-0.659854	0.0443406	-0.0973929	-0.338524	0.0359684	0.0874321	0.294572	-0.521003	0.286032	1.78791	1.51078	0.0598111	-0.425216	0.134774	2.05246	1.91728
1.92	-0.054084	-0.10282	0.0853537	-0.150947	1.25495	-0.65082	0.133835	-0.14628	-0.278287	0.253585	-0.512769	0.199644	-0.0987949	0.296321	-0.340374	-0.431449	0.34857	-0.641514	0.0259404	-0.0974213	-0.337959	0.0472905	0.0934863	0.285408	-0.492612	0.28004	1.75945	1.52712	0.0440792	-0.407314	0.143133	2.04211	1.91714
